<?xml version="1.0" standalone="no"?>
<!DOCTYPE svg PUBLIC "-//W3C//DTD SVG 20010904//EN"
 "http://www.w3.org/TR/2001/REC-SVG-20010904/DTD/svg10.dtd">
<svg version="1.0" xmlns="http://www.w3.org/2000/svg"
 width="2000.000000pt" height="2000.000000pt" viewBox="0 0 2000.000000 2000.000000"
 preserveAspectRatio="xMidYMid meet">

<g transform="translate(0.000000,2000.000000) scale(0.100000,-0.100000)"
fill="#000000" stroke="none">
<path d="M12513 17951 c-28 -17 -68 -50 -89 -75 l-36 -44 -87 -4 c-146 -8
-241 -65 -241 -147 0 -20 7 -47 16 -59 20 -29 77 -58 132 -67 l42 -7 0 -47 c0
-27 7 -56 16 -70 14 -20 23 -23 61 -18 82 9 166 105 191 219 l13 54 37 -36
c43 -40 97 -60 166 -60 32 0 48 5 52 15 4 8 16 15 28 15 32 0 50 -39 42 -92
-9 -62 -9 -67 -8 -135 2 -60 3 -63 26 -63 14 0 38 11 53 24 25 22 28 30 27 88
0 45 -6 75 -22 106 -13 25 -27 76 -33 125 -13 107 -23 138 -59 172 -23 22 -42
29 -84 33 -48 4 -56 8 -66 32 -30 72 -97 87 -177 41z"/>
<path d="M12940 17179 c-83 -23 -87 -26 -99 -89 -14 -68 -44 -100 -95 -100
-44 0 -74 24 -82 65 -3 19 -11 35 -18 35 -6 0 -56 -22 -111 -50 -114 -57 -197
-121 -377 -290 l-126 -118 51 -79 c28 -43 83 -111 122 -152 l71 -74 103 52
c57 29 105 50 107 49 2 -2 8 -55 14 -117 18 -180 -17 -402 -79 -495 -11 -16
-17 -34 -15 -41 3 -6 -58 -64 -136 -129 -280 -234 -482 -431 -522 -510 -50
-98 24 -267 213 -485 l37 -42 12 53 c35 146 137 302 354 541 55 61 83 84 90
77 7 -7 -5 -26 -41 -63 -154 -159 -313 -378 -354 -486 -38 -102 -41 -156 -15
-246 13 -44 23 -81 22 -82 -1 -1 -78 23 -171 53 -391 127 -812 213 -1255 256
-147 14 -734 18 -910 6 -213 -15 -255 -21 -300 -43 -103 -52 -175 -66 -350
-70 -180 -4 -224 -12 -500 -90 -491 -138 -953 -338 -1404 -609 -620 -372
-1196 -895 -1631 -1481 -567 -764 -938 -1663 -1067 -2584 -12 -86 -23 -158
-25 -160 -1 -2 -47 8 -100 22 -527 141 -1173 213 -1678 188 -112 -6 -191 -6
-193 -1 -2 5 -21 36 -42 69 -37 57 -110 121 -175 154 -38 19 -135 43 -198 50
-39 4 -47 2 -47 -12 1 -33 49 -133 90 -187 24 -30 41 -56 39 -58 -2 -2 -32
-18 -67 -36 -56 -30 -122 -88 -122 -108 0 -14 64 -39 145 -57 44 -10 81 -19
83 -20 1 -1 -5 -22 -13 -46 -19 -53 -30 -198 -17 -218 8 -11 20 -8 63 15 109
58 224 201 259 321 12 40 15 42 59 47 272 32 808 7 1206 -55 244 -39 677 -136
695 -156 4 -4 3 -39 -1 -78 -16 -137 -22 -684 -10 -860 103 -1512 769 -2889
1883 -3891 l67 -60 -212 3 c-198 3 -216 5 -274 28 -34 14 -77 25 -97 25 -19 0
-51 9 -70 21 -35 21 -36 21 -63 1 -49 -34 -69 -35 -110 -8 -57 39 -79 35 -195
-32 -32 -18 -64 -45 -72 -60 -19 -35 -17 -41 -66 233 -22 127 -48 247 -57 268
-28 64 -68 92 -247 173 -94 42 -213 96 -263 120 -51 23 -93 38 -93 33 0 -16
-21 -10 -51 15 -32 27 -64 25 -80 -6 -6 -11 -9 -21 -7 -23 2 -1 105 -48 229
-103 400 -179 416 -187 434 -221 13 -26 95 -428 95 -469 0 -8 -13 -12 -41 -10
-40 3 -42 2 -55 -37 -23 -65 -24 -68 -28 -64 -3 2 -21 91 -41 198 -20 107 -43
207 -51 222 -25 49 -74 78 -343 200 -145 65 -265 119 -267 119 -2 0 3 -18 11
-40 8 -22 15 -44 15 -48 1 -4 108 -55 238 -114 229 -104 292 -142 292 -181 0
-6 22 -128 48 -270 l48 -257 -28 -73 c-16 -39 -26 -81 -24 -91 3 -11 -15 -103
-39 -205 -151 -641 -185 -901 -129 -979 61 -82 151 -79 355 13 108 49 426 228
647 365 l183 112 40 -17 c21 -10 39 -22 39 -26 0 -5 39 -69 86 -144 l86 -136
-56 -54 c-37 -35 -67 -77 -89 -122 -30 -64 -32 -75 -32 -178 0 -105 2 -114 33
-177 155 -315 595 -309 744 9 56 118 48 265 -19 380 -32 55 -119 134 -177 162
-74 34 -172 47 -252 32 -55 -10 -69 -10 -79 1 -19 20 -155 236 -155 245 0 7
119 90 743 521 l188 130 92 -57 c554 -347 1297 -628 1970 -745 l37 -7 0 56 c0
94 42 165 125 208 61 32 182 35 264 7 62 -20 162 -77 175 -99 4 -6 15 -15 25
-21 17 -9 17 -3 -5 67 -86 280 -96 544 -23 671 80 140 256 109 439 -77 110
-111 192 -246 281 -460 l47 -114 5 354 c5 371 13 450 58 587 44 133 173 251
277 252 115 1 218 -127 271 -338 42 -164 53 -268 60 -582 l6 -305 29 80 c108
299 249 509 415 619 195 130 334 78 372 -139 22 -126 -12 -404 -68 -553 -12
-30 419 140 703 278 310 150 623 338 899 539 l69 51 -43 0 c-24 0 -41 4 -39
10 2 5 62 77 133 160 l130 150 103 0 103 0 158 155 c177 174 163 171 176 42 4
-37 13 -74 21 -81 16 -16 194 -29 244 -18 l35 8 5 294 5 295 91 120 c50 66
105 141 123 168 17 26 35 47 38 47 3 0 78 -75 166 -166 l161 -166 98 99 98
100 -155 232 c-85 128 -155 237 -155 242 0 5 22 49 49 98 307 553 524 1166
626 1771 30 174 52 338 60 440 4 41 10 118 15 170 4 52 7 256 6 453 l-2 357
58 0 c221 0 644 -75 918 -162 211 -67 511 -201 688 -308 110 -66 104 -57 93
-136 -17 -115 12 -257 70 -349 l31 -49 21 24 c31 39 69 128 75 177 4 36 8 43
21 38 103 -41 211 -58 211 -32 0 31 -25 96 -56 144 -38 60 -39 63 -21 63 26 0
134 59 176 97 l44 39 -53 23 c-29 13 -87 30 -128 38 -111 23 -214 1 -318 -66
-20 -13 -28 -10 -87 27 -36 23 -121 71 -189 106 -435 229 -927 365 -1420 394
-76 5 -140 10 -142 13 -3 3 -12 68 -21 144 -9 77 -26 204 -39 281 l-24 142
-58 70 c-161 191 -234 407 -234 690 0 132 1 140 20 145 20 5 20 7 5 44 -9 21
-27 65 -40 98 -170 443 -470 967 -789 1377 -199 257 -468 547 -694 750 l-82
74 74 145 c230 444 414 986 516 1513 11 61 22 111 23 111 1 1 24 7 51 14 140
34 257 141 325 295 l21 49 -82 -6 c-50 -3 -105 -13 -136 -26 -30 -12 -57 -19
-61 -16 -5 2 -11 26 -15 52 -7 52 -46 146 -66 158 -17 10 -59 -40 -101 -120
-18 -33 -33 -61 -34 -63 -2 -2 -30 14 -63 36 -56 36 -177 80 -189 68 -11 -11
28 -151 59 -208 40 -74 104 -147 163 -185 25 -15 45 -35 45 -44 0 -28 -29
-175 -66 -332 -78 -335 -205 -712 -341 -1017 -62 -138 -166 -346 -182 -363 -5
-5 -35 15 -67 43 -121 106 -574 430 -601 430 -5 0 -16 -15 -25 -34 -18 -38
-178 -252 -231 -308 -40 -43 -80 -50 -97 -18 -9 16 -6 46 9 127 12 58 21 133
21 167 0 51 4 67 20 81 12 11 46 51 76 91 l55 72 -37 74 c-50 100 -165 304
-229 407 l-52 84 255 251 c275 271 469 476 539 571 25 32 57 67 73 76 15 10
31 26 34 36 29 96 39 378 17 493 -27 138 -112 365 -179 473 -24 40 -23 59 2
38 11 -9 22 -3 54 36 58 67 120 180 131 236 l9 48 -107 95 c-123 111 -225 181
-296 206 -55 19 -195 23 -255 7z m-336 -2751 c33 -195 65 -421 60 -430 -13
-20 -22 -4 -28 50 -8 61 -61 395 -72 450 -5 24 -3 32 8 32 10 0 19 -29 32
-102z m216 -1265 c0 -18 -93 -89 -164 -126 -108 -56 -268 -128 -295 -133 -19
-4 -32 1 -45 15 -24 26 -18 42 55 136 30 39 68 96 84 129 l30 58 90 32 c50 18
103 40 120 48 l30 16 47 -81 c26 -45 48 -88 48 -94z m-505 -2759 l-23 -24 -24
21 -24 22 20 21 c21 21 21 21 47 3 l26 -19 -22 -24z m1218 -106 l25 -22 -20
-27 -20 -26 -24 24 c-23 23 -24 25 -7 48 10 13 19 25 20 25 1 0 12 -10 26 -22z
m-964 -218 l24 -12 -26 -22 c-14 -11 -31 -32 -37 -45 l-12 -24 -16 26 c-9 14
-27 30 -40 36 l-24 11 31 36 c17 19 31 40 31 47 1 7 11 0 23 -14 12 -15 33
-32 46 -39z m567 -211 c16 -45 19 -47 35 -33 27 24 32 1 13 -66 l-17 -61 35
-51 c117 -167 319 -409 458 -549 184 -185 223 -217 245 -199 12 10 22 6 56
-24 84 -77 222 -147 319 -162 42 -7 43 -6 37 17 -4 13 -7 34 -7 45 0 15 -8 24
-25 28 -40 10 -102 73 -121 122 -33 87 -1 197 99 329 81 108 72 107 160 18 42
-42 77 -80 77 -84 0 -4 13 -18 28 -31 16 -13 31 -37 35 -53 12 -62 25 -82 56
-88 23 -5 31 -12 31 -27 0 -24 -42 -70 -65 -70 -12 0 -15 -15 -15 -88 l0 -89
49 11 c46 9 54 7 113 -22 58 -28 209 -143 317 -240 38 -34 43 -43 38 -69 -5
-25 -1 -32 22 -46 16 -9 55 -46 89 -81 l60 -65 84 87 c196 203 227 259 237
415 1 25 24 16 31 -13 5 -21 7 -20 33 19 15 22 32 41 37 41 13 0 13 -26 -1
-53 -7 -16 -4 -14 11 6 29 36 44 35 36 -4 -5 -26 -4 -30 8 -20 19 16 25 2 14
-36 -5 -20 -36 -60 -77 -101 -52 -51 -76 -84 -96 -133 -46 -109 -105 -221
-151 -285 -83 -118 -213 -214 -269 -200 -12 3 -71 56 -131 118 -59 62 -112
112 -117 110 -5 -2 -20 7 -33 19 l-24 22 0 -39 c0 -21 11 -217 24 -434 13
-217 21 -398 18 -402 -4 -4 -54 -15 -112 -25 -135 -22 -346 -22 -500 1 -180
27 -283 46 -289 52 -12 12 -3 487 13 654 30 321 30 320 16 320 -35 0 -287 198
-324 255 -13 20 -14 30 -6 46 10 18 1 32 -87 122 -54 56 -117 127 -140 157
-86 114 -198 301 -285 478 -65 131 -94 180 -102 173 -6 -5 -36 -13 -66 -17
-84 -11 -98 -18 -109 -61 -6 -21 -23 -53 -39 -72 l-28 -33 -28 43 c-16 24 -49
70 -73 101 -23 31 -43 60 -43 65 0 4 16 18 35 31 l35 22 0 89 c0 111 10 127
95 142 71 13 125 34 125 48 0 20 29 11 55 -16 28 -31 29 -31 16 14 -5 17 -6
34 -3 38 12 12 70 -65 88 -116z m248 26 c3 -8 12 -15 21 -15 21 0 19 -11 -8
-36 -22 -21 -23 -21 -45 -3 -23 18 -23 19 -5 43 21 29 29 32 37 11z m-889
-563 l22 -18 -23 -29 c-19 -25 -24 -27 -29 -12 -4 9 -15 19 -25 22 -17 5 -17
7 4 30 25 30 22 29 51 7z m2255 -2109 c0 -5 -23 -127 -51 -273 -48 -256 -50
-274 -61 -535 -5 -148 -12 -272 -14 -274 -17 -18 -20 47 -13 268 7 248 9 261
61 538 36 196 56 283 65 283 7 0 13 -3 13 -7z m-5625 -1917 c64 -30 107 -76
141 -150 21 -47 24 -61 14 -64 -8 -3 -36 -25 -62 -50 -27 -25 -50 -43 -51 -41
-2 2 -16 23 -31 47 -43 64 -104 116 -121 102 -18 -15 -35 -89 -35 -156 0 -54
-1 -56 -22 -50 -13 4 -49 10 -80 13 l-57 6 -11 53 c-26 126 37 261 141 303 44
18 121 12 174 -13z m-4095 -1283 c0 -2 4 -3 8 -3 21 0 882 -431 877 -439 -16
-27 -537 -331 -730 -427 -157 -77 -256 -110 -304 -99 -103 22 -106 141 -15
585 40 195 98 452 110 490 3 8 16 -11 30 -45 13 -33 24 -61 24 -62z m1493
-967 c103 -43 141 -191 72 -282 -47 -62 -141 -90 -212 -63 -61 23 -122 109
-123 172 0 63 55 146 115 173 39 17 107 18 148 0z"/>
<path d="M6362 3019 c-68 -45 -91 -141 -49 -213 54 -95 187 -103 260 -17 52
62 44 151 -18 211 -31 30 -42 34 -98 37 -51 3 -68 0 -95 -18z"/>
<path d="M10780 16845 c-30 -9 -72 -27 -92 -40 -73 -48 -129 -161 -143 -291
l-7 -59 -49 3 -49 4 0 -92 c0 -50 7 -123 16 -161 9 -39 14 -72 12 -74 -2 -3
-134 25 -294 61 -660 148 -683 152 -769 109 l-50 -24 51 -1 c37 0 67 -8 106
-28 29 -16 128 -55 218 -86 753 -264 866 -306 885 -329 19 -23 24 -24 77 -17
78 11 162 37 228 70 60 31 161 103 199 144 26 28 54 133 40 151 -4 6 5 37 21
70 45 95 78 255 53 255 -20 -1 -30 -21 -45 -90 -21 -97 -55 -177 -69 -163 -6
6 -39 57 -73 114 -70 117 -52 109 -201 90 -49 -6 -130 -11 -178 -11 l-88 0 6
53 c16 133 64 228 138 271 136 80 342 44 424 -73 27 -38 73 -61 73 -36 0 15
-49 82 -81 112 -13 12 -50 34 -82 49 -74 33 -194 42 -277 19z"/>
<path d="M8700 16123 c-17 -26 -30 -55 -30 -65 0 -22 -8 -22 -47 -3 -16 8 -44
18 -62 21 -31 7 -32 6 -25 -22 4 -16 13 -44 20 -63 8 -19 13 -35 12 -36 -2 -1
-23 -9 -48 -18 -25 -10 -56 -26 -69 -36 l-24 -18 47 -22 c55 -27 146 -37 199
-23 l38 11 59 -79 c148 -201 296 -501 347 -709 10 -39 21 -71 25 -71 4 0 10
16 14 35 8 43 -26 157 -93 314 -69 163 -157 316 -265 464 l-50 67 17 43 c25
58 23 151 -3 210 -12 26 -23 47 -27 47 -3 0 -19 -21 -35 -47z"/>
<path d="M3825 7163 c-118 -27 -151 -55 -200 -169 -49 -114 -70 -135 -194
-200 -62 -32 -130 -76 -156 -101 -94 -90 -129 -236 -86 -358 30 -84 27 -104
-23 -176 -53 -78 -71 -114 -79 -156 -16 -85 69 -216 160 -247 26 -9 52 -16 58
-16 6 0 31 40 55 89 34 70 41 93 32 104 -23 28 141 275 269 406 55 56 80 73
123 87 l53 17 -5 46 c-6 56 -54 121 -88 121 -28 0 -74 53 -74 85 0 14 9 29 21
36 18 9 25 7 49 -16 26 -25 32 -26 61 -16 18 6 47 22 64 36 18 13 35 22 38 19
13 -13 58 33 88 89 l32 62 32 -32 c18 -18 40 -33 48 -33 14 0 26 -37 28 -89 1
-25 1 -24 16 9 24 54 22 184 -4 242 -22 49 -46 68 -86 68 -15 0 -31 10 -41 25
-29 45 -133 82 -191 68z"/>
<path d="M4087 6518 c-9 -15 -32 -38 -52 -49 l-36 -22 23 -25 c13 -13 67 -58
121 -99 114 -86 127 -78 50 34 -26 37 -57 95 -68 129 l-21 61 -17 -29z"/>
<path d="M3624 5149 c-4 -7 -9 -98 -12 -203 -4 -179 4 -347 29 -631 l11 -120
-91 -350 c-50 -192 -118 -455 -152 -583 -34 -128 -58 -239 -55 -248 12 -32
227 -113 254 -95 5 3 94 215 197 471 103 256 192 470 198 475 9 10 6 -147 -10
-492 l-6 -143 121 0 121 0 6 33 c9 52 54 420 80 660 47 414 45 500 -26 1018
l-21 156 -158 -5 c-197 -6 -331 13 -465 64 -7 3 -16 0 -21 -7z m532 -481 c-12
-250 -47 -493 -97 -662 -32 -107 -44 -68 -15 50 52 212 86 475 86 671 0 80 2
93 16 93 15 0 16 -15 10 -152z"/>
<path d="M7108 3973 c-28 -35 -48 -73 -48 -94 0 -19 4 -20 34 -15 20 4 37 2
41 -4 9 -14 52 -13 62 3 4 6 8 38 8 69 l0 58 -41 0 c-27 0 -46 -6 -56 -17z"/>
<path d="M7290 3784 c-11 -31 -19 -61 -18 -66 2 -5 31 -11 64 -13 59 -4 62 -3
94 30 l34 35 -47 0 c-42 0 -49 3 -69 35 -13 19 -26 35 -30 35 -4 0 -16 -25
-28 -56z"/>
<path d="M10501 3594 c0 -11 3 -14 6 -6 3 7 2 16 -1 19 -3 4 -6 -2 -5 -13z"/>
<path d="M7989 3560 c-77 -92 -86 -100 -121 -100 -23 0 -42 -8 -56 -23 -20
-21 -52 -102 -66 -167 -5 -25 -7 -25 -78 -22 -65 4 -75 1 -93 -18 -16 -18 -17
-25 -7 -52 l11 -30 -84 7 c-114 9 -125 5 -125 -51 0 -41 -2 -44 -19 -34 -11 5
-27 10 -36 10 -32 0 -73 -55 -95 -128 -22 -72 -48 -102 -88 -102 -23 0 -72
-37 -72 -54 0 -7 38 -23 88 -36 76 -21 110 -24 262 -25 134 -1 203 -6 294 -23
154 -29 171 -28 280 9 l91 32 218 -6 c263 -7 303 0 331 60 10 21 13 39 8 41
-5 1 -29 15 -54 31 -37 24 -53 45 -102 140 -56 106 -61 113 -127 157 -100 66
-141 127 -178 265 -18 63 -27 80 -67 117 -25 23 -54 42 -64 42 -10 0 -33 -18
-51 -40z"/>
</g>
</svg>
